<?xml version="1.0" encoding="UTF-8" standalone="no"?>
<svg width="768" height="768" viewBox="0 0 768 768" version="1.1" xmlns="http://www.w3.org/2000/svg">
    <rect x="0" y="0" width="768" height="768" fill="#512BD4" />
<g transform="translate(204.8,563.2) scale(0.07,-0.07)"
fill="#ffffff" stroke="none">
<path d="M1342 5104 c-69 -18 -154 -75 -197 -131 -61 -80 -76 -139 -82 -313
-6 -180 4 -228 50 -244 69 -25 105 25 106 147 l1 67 1340 0 1340 0 0 -400 0
-400 -247 0 c-137 0 -264 -5 -284 -10 -53 -15 -59 -37 -59 -225 0 -91 -3 -165
-6 -165 -3 0 -146 101 -317 224 -406 291 -383 276 -427 276 -44 0 -26 11 -392
-251 -152 -110 -279 -199 -282 -199 -3 0 -6 54 -6 120 l0 119 28 15 c126 66
151 259 46 358 -83 78 -225 78 -308 0 -84 -79 -88 -231 -8 -315 15 -16 39 -35
55 -43 l27 -15 0 -182 -1 -182 -154 -109 c-84 -59 -164 -119 -177 -133 -22
-23 -23 -31 -23 -177 0 -221 5 -226 195 -226 l120 0 0 -539 c0 -515 1 -540 19
-562 l19 -24 381 -3 381 -3 0 -264 0 -265 -630 0 -630 0 -2 1571 -3 1571 -28
24 c-15 13 -37 24 -47 24 -10 0 -32 -11 -47 -24 l-28 -24 -3 -1571 -2 -1571
-313 1 -312 0 -30 47 c-44 68 -100 94 -192 90 -61 -3 -78 -8 -115 -35 -56 -40
-98 -118 -98 -183 0 -65 42 -143 98 -183 37 -27 54 -32 115 -35 92 -4 148 22
192 90 l30 47 311 0 312 1 4 -292 c4 -272 6 -297 27 -350 45 -115 142 -203
257 -233 88 -23 2340 -23 2428 0 115 30 213 118 257 233 20 51 22 77 23 240
l1 184 -28 24 c-15 13 -36 24 -46 24 -31 0 -68 -37 -75 -75 l-7 -35 -1339 0
-1340 0 0 140 0 139 685 3 684 3 23 23 c23 22 23 25 26 342 l3 319 380 3 381
3 19 24 c18 22 19 47 19 562 l0 539 120 0 c190 0 195 5 195 226 0 181 12 160
-171 290 l-124 88 0 178 0 178 220 0 220 0 2 -1369 c3 -1330 4 -1369 22 -1390
26 -29 86 -29 112 0 18 21 19 60 22 1390 l2 1369 313 -1 312 0 30 -47 c44 -68
100 -94 192 -90 61 3 78 8 115 35 56 40 98 118 98 183 0 65 -42 143 -98 183
-37 27 -54 32 -115 35 -92 4 -148 -22 -192 -90 l-30 -47 -312 0 -312 -1 -3
493 c-4 483 -4 493 -26 549 -46 116 -143 203 -258 233 -85 22 -2350 21 -2432
-1z m2439 -162 c56 -29 103 -84 115 -134 l6 -28 -1342 0 -1342 0 6 28 c12 50
59 105 115 134 l53 28 1168 0 1168 0 53 -28z m-1929 -959 c23 -20 24 -80 1
-105 -20 -23 -80 -24 -105 -1 -23 20 -24 80 -1 105 20 23 80 24 105 1z m3092
-179 c23 -23 29 -59 15 -86 -16 -31 -28 -38 -64 -38 -36 0 -48 7 -64 38 -25
48 9 102 64 102 18 0 41 -7 49 -16z m-1863 -402 l514 -368 3 -86 3 -86 -125
-4 c-122 -3 -126 -4 -153 -31 l-28 -27 -3 -385 -3 -385 -56 0 c-66 0 -103 -25
-103 -71 0 -49 30 -72 99 -77 l61 -4 0 -74 0 -74 -730 0 -730 0 0 75 0 75 530
0 c372 0 536 3 554 11 51 23 55 103 7 128 -13 7 -197 11 -555 11 l-535 0 -3
385 -3 385 -28 27 c-27 27 -31 28 -153 31 l-125 4 3 86 3 86 514 368 c283 202
517 368 521 368 4 0 238 -166 521 -368z m-2807 -2378 c23 -23 29 -59 15 -86
-16 -31 -28 -38 -64 -38 -36 0 -48 7 -64 38 -25 48 9 102 64 102 18 0 41 -7
49 -16z m3625 -648 c-4 -75 -7 -89 -35 -128 -19 -26 -53 -54 -84 -70 l-52 -28
-1168 0 -1168 0 -52 28 c-31 16 -65 44 -84 70 -28 39 -31 53 -35 128 l-3 84
1342 0 1342 0 -3 -84z"/>
<path d="M2451 3140 c-124 -17 -293 -87 -366 -151 -45 -40 -49 -87 -9 -118 36
-28 61 -26 114 10 215 146 493 150 724 11 79 -48 93 -50 130 -21 40 32 36 78
-11 120 -48 41 -199 112 -283 133 -84 20 -218 27 -299 16z"/>
<path d="M2408 2905 c-125 -31 -258 -116 -258 -166 0 -35 25 -66 60 -74 23 -5
42 1 89 30 159 98 364 100 515 5 69 -44 99 -48 130 -17 37 37 34 72 -9 113
-42 39 -140 87 -223 108 -73 20 -225 20 -304 1z"/>
<path d="M2447 2680 c-46 -12 -111 -44 -154 -77 -41 -30 -46 -81 -11 -113 30
-28 58 -25 130 13 56 29 70 32 148 32 78 0 92 -3 148 -32 34 -18 73 -33 87
-33 36 0 65 33 65 74 0 41 -31 69 -125 113 -50 23 -76 28 -155 30 -52 1 -112
-2 -133 -7z"/>
<path d="M2510 2390 c-30 -30 -27 -83 6 -109 15 -12 34 -21 44 -21 10 0 29 9
44 21 52 41 23 129 -44 129 -17 0 -39 -9 -50 -20z"/>
<path d="M2325 368 c-28 -16 -35 -28 -35 -63 0 -69 21 -75 270 -75 249 0 270
6 270 75 0 69 -21 75 -272 75 -140 -1 -220 -5 -233 -12z"/>
</g>
</svg>